<svg width="1377" height="1377" viewBox="0 0 1377 1377" fill="none" xmlns="http://www.w3.org/2000/svg">
<g clip-path="url(#clip0_717_50)">
<path d="M1377 0H0V1377H1377V0Z" fill="#1A1A1A"/>
<g opacity="0.5">
<path d="M771.671 484.704H223.074C211.507 484.704 202.419 494.068 202.419 505.359V862.553C202.419 874.12 211.783 883.208 223.074 883.208H771.395C782.962 883.208 792.05 873.844 792.05 862.553V505.634C792.326 494.068 782.962 484.704 771.671 484.704ZM758.176 830.606H238.221V518.578H758.176V830.606Z" fill="#E8F7F7"/>
<path d="M589.08 915.154H405.664V939.114H589.08V915.154Z" fill="#E8F7F7"/>
<path d="M238.221 830.606H758.176V518.578H238.221V830.606ZM344.25 541.161C349.482 541.161 353.889 545.292 353.889 550.8C353.889 556.033 349.758 560.439 344.25 560.439C339.017 560.439 334.611 556.308 334.611 550.8C334.611 545.567 339.017 541.161 344.25 541.161ZM312.303 541.161C317.536 541.161 321.942 545.292 321.942 550.8C321.942 556.033 317.811 560.439 312.303 560.439C307.071 560.439 302.664 556.308 302.664 550.8C302.94 545.567 307.071 541.161 312.303 541.161ZM280.632 541.161C285.865 541.161 290.271 545.292 290.271 550.8C290.271 556.033 286.14 560.439 280.632 560.439C275.4 560.439 270.993 556.308 270.993 550.8C270.993 545.567 275.4 541.161 280.632 541.161Z" fill="#1E4C4C"/>
<path d="M280.632 560.439C285.865 560.439 290.271 556.308 290.271 550.8C290.271 545.567 286.14 541.161 280.632 541.161C275.4 541.161 270.993 545.292 270.993 550.8C270.993 556.033 275.4 560.439 280.632 560.439Z" fill="#E8F7F7"/>
<path d="M312.303 560.439C317.536 560.439 321.942 556.308 321.942 550.8C321.942 545.567 317.811 541.161 312.303 541.161C307.07 541.161 302.664 545.292 302.664 550.8C302.939 556.033 307.07 560.439 312.303 560.439Z" fill="#E8F7F7"/>
<path d="M344.25 560.439C349.483 560.439 353.889 556.308 353.889 550.8C353.889 545.567 349.758 541.161 344.25 541.161C339.018 541.161 334.611 545.292 334.611 550.8C334.611 556.033 339.018 560.439 344.25 560.439Z" fill="#E8F7F7"/>
</g>
<g opacity="0.1">
<path d="M908.545 314.231C908.269 305.694 901.384 299.084 892.847 299.084H473.413C464.6 299.084 457.439 306.245 457.439 315.058V473.137H484.704V325.247H882.106V361.049L907.994 360.774V314.231H908.545Z" fill="#E8F7F7"/>
<path d="M484.979 324.697V472.586H584.123V363.803L882.382 360.499V324.697H484.979ZM517.477 356.643C513.346 356.643 510.316 353.338 510.316 349.483C510.316 345.352 513.621 342.322 517.477 342.322C521.608 342.322 524.637 345.627 524.637 349.483C524.637 353.338 521.608 356.643 517.477 356.643ZM541.712 356.643C537.581 356.643 534.551 353.338 534.551 349.483C534.551 345.352 537.856 342.322 541.712 342.322C545.843 342.322 548.872 345.627 548.872 349.483C549.148 353.338 545.843 356.643 541.712 356.643ZM565.947 356.643C561.816 356.643 558.787 353.338 558.787 349.483C558.787 345.352 562.091 342.322 565.947 342.322C570.078 342.322 573.107 345.627 573.107 349.483C573.383 353.338 570.078 356.643 565.947 356.643Z" fill="#1E4C4C"/>
<path d="M517.477 342.047C513.346 342.047 510.316 345.352 510.316 349.207C510.316 353.338 513.621 356.368 517.477 356.368C521.608 356.368 524.637 353.063 524.637 349.207C524.637 345.352 521.608 342.047 517.477 342.047Z" fill="#E8F7F7"/>
<path d="M541.712 342.047C537.581 342.047 534.552 345.352 534.552 349.207C534.552 353.338 537.857 356.368 541.712 356.368C545.843 356.368 548.873 353.063 548.873 349.207C549.148 345.352 545.843 342.047 541.712 342.047Z" fill="#E8F7F7"/>
<path d="M565.947 342.047C561.816 342.047 558.786 345.352 558.786 349.207C558.786 353.338 562.091 356.368 565.947 356.368C570.078 356.368 573.107 353.063 573.107 349.207C573.382 345.352 570.078 342.047 565.947 342.047Z" fill="#E8F7F7"/>
</g>
<g opacity="0.5">
<path fill-rule="evenodd" clip-rule="evenodd" d="M387.212 319.189C387.212 262.456 341.22 216.74 284.763 216.74C228.031 216.74 182.314 262.732 182.314 319.189C182.314 375.921 228.306 421.637 284.763 421.637C341.22 421.637 387.212 375.921 387.212 319.189Z" fill="white"/>
<path d="M309.937 263.443L304.288 261.251L279.485 325.183L285.133 327.375L309.937 263.443Z" fill="#1A7C7B"/>
<path d="M240.679 308.392L238.993 314.212L284.226 327.318L285.913 321.498L240.679 308.392Z" fill="#1A7C7B"/>
<path d="M286.966 229.684C286.966 227.756 285.314 225.828 283.11 225.828C281.183 225.828 279.255 227.48 279.255 229.684C279.255 231.611 280.907 233.539 283.11 233.539C285.314 233.264 286.966 231.611 286.966 229.684Z" fill="#1A7C7B"/>
<path d="M286.966 404.012C286.966 401.809 285.314 400.156 283.11 400.156C281.183 400.156 279.255 401.809 279.255 404.012C279.255 405.94 280.907 407.867 283.11 407.867C285.314 407.867 286.966 406.215 286.966 404.012Z" fill="#1A7C7B"/>
<path d="M196.084 313.13C194.156 313.13 192.229 314.782 192.229 316.985C192.229 318.913 193.881 320.841 196.084 320.841C198.012 320.841 199.94 319.189 199.94 316.985C199.664 314.782 198.012 313.13 196.084 313.13Z" fill="#1A7C7B"/>
<path d="M370.412 313.13C368.484 313.13 366.557 314.782 366.557 316.985C366.557 318.913 368.209 320.841 370.412 320.841C372.615 320.841 374.268 319.189 374.268 316.985C374.268 314.782 372.615 313.13 370.412 313.13Z" fill="#1A7C7B"/>
</g>
<g opacity="0.2">
<path d="M1169.07 374.269H620.476C608.909 374.269 599.821 383.632 599.821 394.924V470.934H635.623V407.867H1155.58V719.896H818.489V772.497H1169.07C1180.64 772.497 1189.73 763.133 1189.73 751.842V394.924C1189.73 383.632 1180.36 374.269 1169.07 374.269Z" fill="#E8F7F7"/>
<path d="M986.483 804.719H818.489V828.678H986.483V804.719Z" fill="#E8F7F7"/>
<path d="M1155.58 408.143H635.623V471.209H818.489V720.171H1155.58V408.143ZM678.035 449.728C672.802 449.728 668.396 445.597 668.396 440.089C668.396 434.857 672.527 430.45 678.035 430.45C683.267 430.45 687.674 434.581 687.674 440.089C687.674 445.597 683.267 449.728 678.035 449.728ZM709.981 449.728C704.748 449.728 700.342 445.597 700.342 440.089C700.342 434.857 704.473 430.45 709.981 430.45C715.214 430.45 719.62 434.581 719.62 440.089C719.345 445.597 715.214 449.728 709.981 449.728ZM741.652 449.728C736.419 449.728 732.013 445.597 732.013 440.089C732.013 434.857 736.144 430.45 741.652 430.45C747.16 430.45 751.291 434.581 751.291 440.089C751.016 445.597 746.885 449.728 741.652 449.728Z" fill="#1E4C4C"/>
<path d="M678.035 430.726C672.802 430.726 668.396 434.857 668.396 440.365C668.396 445.597 672.527 450.004 678.035 450.004C683.267 450.004 687.674 445.873 687.674 440.365C687.674 434.857 683.267 430.726 678.035 430.726Z" fill="#E8F7F7"/>
<path d="M709.982 430.726C704.749 430.726 700.343 434.857 700.343 440.365C700.343 445.597 704.474 450.004 709.982 450.004C715.214 450.004 719.621 445.873 719.621 440.365C719.345 434.857 715.214 430.726 709.982 430.726Z" fill="#E8F7F7"/>
<path d="M741.653 430.726C736.42 430.726 732.014 434.857 732.014 440.365C732.014 445.597 736.145 450.004 741.653 450.004C747.161 450.004 751.292 445.873 751.292 440.365C751.016 434.857 746.885 430.726 741.653 430.726Z" fill="#E8F7F7"/>
</g>
<path d="M422.464 1024.21H970.785C982.352 1024.21 991.44 1014.85 991.44 1003.56V646.364C991.44 634.797 982.076 625.709 970.785 625.709H422.464C410.897 625.709 401.809 635.072 401.809 646.364V1003.56C401.533 1015.12 410.897 1024.21 422.464 1024.21Z" fill="#E8F7F7"/>
<path d="M788.195 1056.16H604.778V1080.12H788.195V1056.16Z" fill="#E8F7F7"/>
<path d="M957.29 659.583H437.335V971.611H957.29V659.583Z" fill="#1E4C4C"/>
<path fill-rule="evenodd" clip-rule="evenodd" d="M950.681 996.948C950.681 989.512 944.622 983.453 937.186 983.453C929.75 983.453 923.691 989.512 923.691 996.948C923.691 1004.38 929.75 1010.44 937.186 1010.44C944.622 1010.44 950.681 1004.11 950.681 996.948Z" fill="#9EC10D"/>
<mask id="mask0_717_50" style="mask-type:luminance" maskUnits="userSpaceOnUse" x="401" y="625" width="591" height="400">
<path d="M422.464 1024.21H970.785C982.352 1024.21 991.44 1014.85 991.44 1003.56V646.364C991.44 634.797 982.076 625.709 970.785 625.709H422.464C410.897 625.709 401.809 635.072 401.809 646.364V1003.56C401.533 1015.12 410.897 1024.21 422.464 1024.21Z" fill="white"/>
</mask>
<g mask="url(#mask0_717_50)">
<g opacity="0.2">
<path fill-rule="evenodd" clip-rule="evenodd" d="M984.28 538.958C985.381 535.653 986.758 532.624 987.585 529.594C988.135 527.942 988.962 526.565 991.44 526.84C998.601 527.942 1006.04 528.768 1013.2 529.594C1014.57 529.87 1015.68 530.696 1015.68 532.624C1016.23 543.64 1020.08 553.554 1027.24 561.816C1031.65 567.049 1036.88 570.904 1043.49 573.383C1056.99 578.34 1069.65 576.688 1082.32 570.353C1083.7 569.527 1085.08 570.078 1085.9 570.904C1090.58 576.963 1095.27 583.297 1099.95 589.356C1101.32 591.284 1099.67 592.11 1098.57 593.212C1094.16 597.893 1091.13 603.401 1089.48 609.46C1085.63 623.23 1089.76 635.348 1096.92 646.915C1100.22 652.423 1104.9 656.829 1110.96 659.583C1112.89 660.685 1115.09 661.235 1117.02 662.062C1117.57 662.337 1118.4 663.439 1118.12 663.989C1117.57 670.874 1116.75 677.759 1115.92 684.644C1115.92 685.195 1115.92 685.746 1115.92 686.297C1115.37 687.949 1114.82 689.326 1112.62 689.326C1101.05 689.602 1090.58 692.906 1082.05 701.168C1078.19 705.024 1075.16 709.43 1073.51 714.663C1071.58 720.446 1071.03 726.23 1071.86 732.289C1072.68 738.898 1074.61 744.682 1077.92 750.465C1079.02 752.117 1078.74 753.494 1077.64 754.321C1071.58 759.002 1065.52 763.684 1059.46 768.366C1058.91 768.641 1057.54 768.641 1056.99 768.366C1055.06 767.264 1053.41 765.337 1051.48 764.235C1043.49 759.278 1034.68 757.901 1025.31 759.278C1016.78 760.379 1008.79 762.583 1001.91 767.815C995.296 772.772 991.165 779.657 988.686 787.644C987.86 790.398 987.309 791.224 984.004 790.949C977.119 790.123 969.959 789.296 963.074 788.47C961.422 788.195 960.32 787.369 960.32 785.441C959.769 774.425 955.914 764.786 949.029 756.248C944.898 751.567 940.216 747.436 934.432 745.232C920.662 740 907.168 740.826 894.224 747.711C892.296 748.813 890.919 748.262 889.818 746.885C885.687 741.652 881.556 736.42 877.425 730.912C875.221 727.882 875.772 727.607 877.975 724.577C881.28 720.171 884.309 715.489 886.237 710.257C889.542 701.719 888.441 692.906 885.411 684.369C881.005 671.425 871.917 663.439 858.973 659.583C857.045 659.032 855.668 657.931 855.943 655.452C856.769 648.292 857.596 641.131 858.697 633.971C858.973 632.318 859.799 631.217 861.727 631.217C872.743 630.666 882.657 626.81 891.195 619.375C895.601 615.519 899.457 611.113 901.66 605.329C905.791 594.864 905.24 584.399 901.109 574.209C900.283 571.73 898.906 569.527 897.804 567.324C896.978 565.947 897.253 564.57 898.355 563.744C904.138 559.062 910.197 554.656 916.256 549.974C917.633 548.872 918.459 549.423 919.561 550.249C921.213 551.626 922.866 553.003 924.518 554.105C934.983 560.439 945.999 560.714 957.291 557.96C964.451 556.308 971.061 553.554 976.293 548.597C979.323 545.567 981.526 541.987 984.28 538.958ZM1033.58 555.757C1006.86 540.886 974.09 549.974 958.943 576.137C943.796 602.575 953.16 635.623 979.323 650.495C1005.76 665.642 1038.81 656.554 1053.96 630.115C1068.83 603.952 1059.74 571.18 1033.58 555.757Z" fill="#1E4C4C"/>
</g>
</g>
<path d="M1159.98 1157.23H1019.25C1019.25 1121.98 1047.62 1093.61 1082.87 1093.61H1096.37C1131.62 1093.61 1159.98 1121.98 1159.98 1157.23Z" fill="#E8F7F7"/>
<path d="M1025.31 1157.23H945.172C926.17 1157.23 910.472 1141.81 910.472 1122.53V1095.82C910.472 1087.28 903.587 1080.39 895.049 1080.39H847.13V1061.12H895.049C914.052 1061.12 929.75 1076.54 929.75 1095.82V1122.53C929.75 1131.07 936.635 1137.95 945.172 1137.95H1025.31V1157.23Z" fill="#E8F7F7"/>
<path fill-rule="evenodd" clip-rule="evenodd" d="M1008.79 476.442C1009.89 473.137 1011.27 469.832 1012.37 466.803C1012.92 464.875 1013.75 463.774 1016.23 464.049C1023.66 465.151 1031.1 465.977 1038.53 466.803C1040.19 467.078 1041.01 467.905 1041.01 469.832C1041.56 481.124 1045.42 491.314 1052.85 499.851C1057.26 505.084 1062.77 509.215 1069.65 511.693C1083.42 516.65 1096.64 514.998 1109.31 508.664C1110.96 507.838 1112.07 508.388 1112.89 509.215C1117.85 515.549 1122.53 521.883 1127.21 528.217C1128.59 530.145 1126.94 530.971 1125.84 532.073C1121.43 537.03 1118.12 542.538 1116.47 548.872C1112.62 562.918 1116.75 575.586 1123.91 587.153C1127.49 592.936 1132.17 597.343 1138.23 600.097C1140.16 601.198 1142.36 601.749 1144.56 602.575C1145.11 602.851 1145.94 603.952 1145.66 604.778C1145.11 611.939 1144.01 618.824 1143.46 625.709C1143.46 626.26 1143.46 626.81 1143.46 627.361C1142.91 629.014 1142.36 630.391 1140.16 630.391C1128.31 630.666 1117.57 634.246 1108.76 642.508C1104.9 646.364 1101.88 651.046 1099.95 656.554C1098.02 662.612 1097.47 668.396 1098.3 674.455C1099.12 681.064 1101.32 687.123 1104.35 692.906C1105.46 694.559 1105.46 695.936 1104.08 697.037C1098.02 701.995 1091.69 706.676 1085.35 711.358C1084.8 711.634 1083.42 711.634 1082.87 711.358C1080.95 709.981 1079.29 708.329 1077.36 707.227C1069.1 702.27 1060.01 700.893 1050.38 701.995C1041.84 703.096 1033.58 705.575 1026.42 710.807C1019.53 716.04 1015.4 723.2 1012.92 731.187C1012.09 734.216 1011.54 735.043 1008.24 734.492C1001.08 733.666 993.919 732.839 986.758 732.013C985.106 731.738 984.004 730.912 984.004 728.984C983.453 717.692 979.598 707.778 972.437 699.241C968.306 694.283 963.349 690.428 957.566 687.949C943.52 682.441 929.475 683.543 916.256 690.428C914.328 691.529 912.951 690.979 911.849 689.326C907.443 684.094 903.312 678.586 898.906 672.802C896.702 669.773 897.253 669.497 899.456 666.193C902.761 661.786 905.791 656.829 907.994 651.596C911.299 642.784 910.197 633.971 907.168 625.158C902.486 611.939 893.398 603.677 880.178 599.821C877.975 599.27 876.874 598.169 877.149 595.69C877.975 588.53 878.801 581.094 879.903 573.658C880.178 572.006 881.005 570.904 882.932 570.904C894.224 570.353 904.414 566.498 913.226 558.787C917.908 554.931 921.764 550.249 923.967 544.466C928.373 533.725 927.547 522.985 923.416 512.519C922.315 510.041 921.213 507.838 920.111 505.359C919.285 503.982 919.561 502.605 920.662 501.779C926.721 497.097 932.78 492.415 938.839 487.733C940.216 486.632 941.042 487.183 942.143 488.009C943.796 489.386 945.448 491.038 947.376 492.14C957.841 498.474 969.408 498.749 980.975 495.995C988.411 494.343 995.02 491.314 1000.53 486.356C1003.83 483.327 1006.04 479.471 1008.79 476.442ZM1040.46 550.525C1013.2 535.378 979.322 544.466 964.175 571.455C948.753 598.444 958.117 632.318 985.106 647.741C1012.1 663.163 1045.97 653.8 1061.39 626.81C1076.54 600.097 1067.17 566.222 1040.46 550.525Z" fill="#FCC020"/>
<path d="M489.385 691.805C489.385 686.572 485.254 682.166 479.746 682.166C474.514 682.166 470.107 686.297 470.107 691.805C470.107 697.037 474.238 701.444 479.746 701.444C485.254 701.168 489.385 697.037 489.385 691.805Z" fill="#FCC020"/>
<path d="M521.056 691.805C521.056 686.572 516.925 682.166 511.417 682.166C506.185 682.166 501.778 686.297 501.778 691.805C501.778 697.037 505.909 701.444 511.417 701.444C516.925 701.168 521.056 697.037 521.056 691.805Z" fill="#9EC10D"/>
<path d="M553.003 691.805C553.003 686.572 548.872 682.166 543.364 682.166C538.131 682.166 533.725 686.297 533.725 691.805C533.725 697.037 537.856 701.444 543.364 701.444C548.596 701.168 553.003 697.037 553.003 691.805Z" fill="#E8F7F7"/>
<path d="M833.911 838.593H548.046V901.109H833.911V838.593Z" fill="#E8F7F7"/>
<path fill-rule="evenodd" clip-rule="evenodd" d="M613.591 870.815C613.591 863.654 607.807 857.871 600.647 857.871C593.487 857.871 587.703 863.654 587.703 870.815C587.703 877.975 593.487 883.759 600.647 883.759C608.083 883.759 613.591 877.975 613.591 870.815Z" fill="#1E4C4C"/>
<path fill-rule="evenodd" clip-rule="evenodd" d="M651.321 870.815C651.321 863.654 645.538 857.871 638.377 857.871C631.217 857.871 625.434 863.654 625.434 870.815C625.434 877.975 631.217 883.759 638.377 883.759C645.538 883.759 651.321 877.975 651.321 870.815Z" fill="#1E4C4C"/>
<path fill-rule="evenodd" clip-rule="evenodd" d="M689.051 870.815C689.051 863.654 683.267 857.871 676.107 857.871C668.946 857.871 663.163 863.654 663.163 870.815C663.163 877.975 668.946 883.759 676.107 883.759C683.267 883.759 689.051 877.975 689.051 870.815Z" fill="#1E4C4C"/>
<path fill-rule="evenodd" clip-rule="evenodd" d="M726.505 870.815C726.505 863.654 720.721 857.871 713.561 857.871C706.401 857.871 700.617 863.654 700.617 870.815C700.617 877.975 706.401 883.759 713.561 883.759C720.721 883.759 726.505 877.975 726.505 870.815Z" fill="#1E4C4C"/>
<path fill-rule="evenodd" clip-rule="evenodd" d="M764.235 870.815C764.235 863.654 758.452 857.871 751.291 857.871C744.131 857.871 738.348 863.654 738.348 870.815C738.348 877.975 744.131 883.759 751.291 883.759C758.452 883.759 764.235 877.975 764.235 870.815Z" fill="#1E4C4C"/>
<path fill-rule="evenodd" clip-rule="evenodd" d="M801.965 870.815C801.965 863.654 796.181 857.871 789.021 857.871C781.861 857.871 776.077 863.654 776.077 870.815C776.077 877.975 781.861 883.759 789.021 883.759C796.181 883.759 801.965 877.975 801.965 870.815Z" fill="#1E4C4C"/>
<path d="M833.911 744.406H548.046V806.922H833.911V744.406Z" fill="#E8F7F7"/>
<path fill-rule="evenodd" clip-rule="evenodd" d="M584.673 788.47H609.735C615.794 788.47 620.475 783.513 620.475 777.73C620.475 771.671 615.518 766.989 609.735 766.989H584.673C578.615 766.989 573.933 771.946 573.933 777.73C573.657 783.513 578.615 788.47 584.673 788.47Z" fill="#9EC10D"/>
<path fill-rule="evenodd" clip-rule="evenodd" d="M731.462 788.47H765.887C771.946 788.47 776.628 783.513 776.628 777.73C776.628 771.671 771.671 766.989 765.887 766.989H731.462C725.403 766.989 720.722 771.946 720.722 777.73C720.722 783.513 725.679 788.47 731.462 788.47Z" fill="#9EC10D"/>
<path fill-rule="evenodd" clip-rule="evenodd" d="M642.233 788.47H666.468C672.527 788.47 677.209 783.513 677.209 777.73C677.209 771.671 672.251 766.989 666.468 766.989H642.233C636.174 766.989 631.492 771.946 631.492 777.73C631.492 783.513 636.174 788.47 642.233 788.47Z" fill="#9EC10D"/>
<path fill-rule="evenodd" clip-rule="evenodd" d="M694.008 788.47H701.719C707.778 788.47 712.46 783.513 712.46 777.73C712.46 771.671 707.503 766.989 701.719 766.989H694.008C687.949 766.989 683.268 771.946 683.268 777.73C683.268 783.513 687.949 788.47 694.008 788.47Z" fill="#9EC10D"/>
</g>
<defs>
<clipPath id="clip0_717_50">
<rect width="1377" height="1377" fill="white"/>
</clipPath>
</defs>
</svg>
